<?xml version="1.0" encoding="UTF-8"?>
<svg version="1.1" xmlns="http://www.w3.org/2000/svg" width="174" height="148">
<path d="M0 0 C57.42 0 114.84 0 174 0 C174 48.84 174 97.68 174 148 C116.58 148 59.16 148 0 148 C0 99.16 0 50.32 0 0 Z " fill="#FEFEFE" transform="translate(0,0)"/>
<path d="M0 0 C2.44861726 0.41931923 3.91612759 -0.1764477 6.22265625 -1.05859375 C19.73073672 -6.16588919 35.87678317 -4.7456462 48.97265625 0.94140625 C59.60213668 6.76547573 67.21097903 16.08213463 71.22265625 27.37890625 C73.89930818 36.81937987 73.67344866 46.71244129 71.84765625 56.31640625 C67.00025914 54.75003892 63.49834268 51.96240779 59.53515625 48.87890625 C52.04428504 43.15361 44.37600382 37.75689119 36.56005859 32.48681641 C35.04089134 31.44848053 33.54582256 30.37508035 32.0546875 29.296875 C28.93176737 27.06322861 26.53339355 25.48434192 22.78515625 24.56640625 C18.35426137 25.69769856 15.28598273 28.38422935 11.84765625 31.31640625 C11.05101563 30.59324219 11.05101563 30.59324219 10.23828125 29.85546875 C9.531875 29.22382812 8.82546875 28.5921875 8.09765625 27.94140625 C7.4015625 27.31492187 6.70546875 26.6884375 5.98828125 26.04296875 C-0.315932 20.95818361 -7.42186048 21.67287814 -15.15234375 22.31640625 C-21.46476605 23.93076234 -25.55785103 28.03104623 -29.15234375 33.31640625 C-32.32696839 38.92490979 -33.02939962 44.00353157 -32.15234375 50.31640625 C-30.48751114 55.70363383 -27.94252216 60.1201373 -24.15234375 64.31640625 C-25.3437737 67.24082521 -26.414688 68.54824536 -28.83984375 70.69140625 C-31.48989617 73.0833193 -31.48989617 73.0833193 -31.0090332 76.10498047 C-30.06038807 79.66111558 -28.6997156 82.2006005 -26.7578125 85.32421875 C-26.41402557 85.8835762 -26.07023865 86.44293365 -25.71603394 87.01924133 C-24.59930199 88.83215059 -23.4695537 90.63656204 -22.33984375 92.44140625 C-21.56653816 93.69341996 -20.79432904 94.94611153 -20.02319336 96.19946289 C-18.47420749 98.71538592 -16.92110203 101.22867854 -15.36425781 103.73974609 C-12.27821168 108.72260189 -9.23950832 113.73360145 -6.21484375 118.75390625 C-5.72588623 119.55650879 -5.23692871 120.35911133 -4.7331543 121.18603516 C-2.54448291 124.81428027 -0.5520153 128.29335032 0.84765625 132.31640625 C-20.15680502 129.37336273 -40.17494534 109.70136631 -52.63598633 93.85107422 C-66.09637139 75.98104906 -73.41814271 54.77626541 -71.15234375 32.31640625 C-68.32607715 19.25482836 -61.59695863 9.92701558 -50.45703125 2.71484375 C-35.24684546 -6.51438763 -16.541333 -5.25359941 0 0 Z " fill="#01BF63" transform="translate(82.15234375,9.68359375)"/>
<path d="M0 0 C2.76809416 2.61176521 4.84434646 5.10022542 6.7421875 8.39453125 C7.24451904 9.25699463 7.74685059 10.11945801 8.2644043 11.00805664 C8.79590088 11.93352295 9.32739746 12.85898926 9.875 13.8125 C11.02317839 15.78736683 12.1729749 17.7612936 13.32421875 19.734375 C13.92153809 20.75853516 14.51885742 21.78269531 15.13427734 22.83789062 C18.83571805 29.11125624 22.669885 35.30521422 26.50537109 41.49731445 C27.06434082 42.40698975 27.62331055 43.31666504 28.19921875 44.25390625 C28.69252686 45.05127197 29.18583496 45.8486377 29.6940918 46.67016602 C31.02992952 49.05339641 32.04295041 51.44380807 33 54 C26.12814565 53.04851248 20.12710025 49.35651813 14.10546875 46.10302734 C12.11803166 45.06183523 10.10513074 44.13356938 8.0625 43.20703125 C4.29186577 41.31416683 1.60431323 39.40999542 -1 36 C-2.74128849 29.14537999 -1.6789794 21.94340339 -1 15 C-0.89983063 13.4341449 -0.80805809 11.86771921 -0.7265625 10.30078125 C-0.54378908 6.86131774 -0.2952203 3.43193598 0 0 Z " fill="#048A49" transform="translate(50,88)"/>
<path d="M0 0 C4.43942487 2.04960363 6.81120086 4.32903435 9.77734375 8.27734375 C1.16742933 16.34115024 -7.46425273 24.37475097 -16.22265625 32.27734375 C-20.36065103 30.53869048 -21.63197591 28.61549799 -23.45703125 24.625 C-25.0184407 19.83720879 -25.19273548 15.00082822 -23.4921875 10.2265625 C-18.73187156 1.15281742 -9.79233781 -3.18380052 0 0 Z " fill="#04C065" transform="translate(80.22265625,37.72265625)"/>
<path d="M0 0 C2.44861726 0.41931923 3.91612759 -0.1764477 6.22265625 -1.05859375 C19.73073672 -6.16588919 35.87678317 -4.7456462 48.97265625 0.94140625 C57.29302889 5.50027709 64.57811058 12.84080257 68.84765625 21.31640625 C69.72265625 24.87890625 69.72265625 24.87890625 69.84765625 27.31640625 C69.41839844 26.74148437 68.98914063 26.1665625 68.546875 25.57421875 C67.4553648 24.12389025 66.35453275 22.68050489 65.2421875 21.24609375 C64.72011719 20.56804688 64.19804687 19.89 63.66015625 19.19140625 C63.13035156 18.50820313 62.60054687 17.825 62.0546875 17.12109375 C60.84765625 15.31640625 60.84765625 15.31640625 60.84765625 13.31640625 C60.28175781 13.04699219 59.71585938 12.77757813 59.1328125 12.5 C55.93320746 10.84276867 52.97543328 8.83404675 49.96875 6.8515625 C41.71307269 2.79088518 33.44453345 1.83091786 24.34765625 1.94140625 C23.39246094 1.92980469 22.43726562 1.91820312 21.453125 1.90625 C15.34439319 1.93104864 10.12478674 2.83413812 4.31958008 4.74658203 C0.91764461 5.53079116 -1.69169836 4.95056617 -4.984375 3.95703125 C-16.65490413 0.50844246 -33.86068864 0.00009604 -45 5.109375 C-45.71027344 5.50769531 -46.42054687 5.90601563 -47.15234375 6.31640625 C-47.89355469 6.72503906 -48.63476562 7.13367187 -49.3984375 7.5546875 C-51.3919518 8.73616478 -53.27721608 9.9555541 -55.15234375 11.31640625 C-55.97605469 11.90421875 -56.79976562 12.49203125 -57.6484375 13.09765625 C-60.47821535 15.60516611 -62.00622801 18.0200184 -63.83984375 21.31640625 C-64.42121094 22.34765625 -65.00257812 23.37890625 -65.6015625 24.44140625 C-66.82832594 26.71570825 -68.01928116 28.99446518 -69.15234375 31.31640625 C-70.54787646 27.12980811 -69.25989052 25.03002257 -67.5703125 21.07421875 C-62.20989429 10.64872218 -53.05314875 2.63130823 -42.15234375 -1.68359375 C-28.51795761 -5.77132242 -13.42892583 -4.26508534 0 0 Z " fill="#0E9152" transform="translate(82.15234375,9.68359375)"/>
<path d="M0 0 C2 2.5 2 2.5 4 5 C5.11375 6.3303125 5.11375 6.3303125 6.25 7.6875 C8 10 8 10 8 12 C6.25 11.9375 6.25 11.9375 4 11 C1.13940656 7.32761653 0 4.70446134 0 0 Z " fill="#0B9050" transform="translate(50,64)"/>
</svg>
